<svg height="80" width="82" xmlns="http://www.w3.org/2000/svg"><g fill="none" fill-rule="evenodd"><path d="M81.133 32.053c-3.814-11.432-19.758-7.488-19.758-7.488a28.634 28.634 0 0 0-7.938 2.98c1.452-4.188 1.612-7.488 1.612-7.488C56.476 3.034 45.457.355 45.457.355 33.43-.4 31.104 15.859 31.104 15.859a28.626 28.626 0 0 0-.027 9.756c-3.865-3.357-7.551-4.859-7.551-4.859-15.583-6.997-21.77 2.505-21.77 2.505-4.705 11.096 9.859 18.689 9.859 18.689a28.657 28.657 0 0 0 11.12 3.529c-4.902 3.399-7.571 7.478-7.571 7.478-9.85 13.955-1.708 21.847-1.708 21.847 9.989 6.742 20.23-6.1 20.23-6.1a28.526 28.526 0 0 0 4.693-7.721c1.588 5.305 4.245 8.827 4.245 8.827 9.804 13.988 19.982 8.992 19.982 8.992 9.722-7.123 1.099-21.101 1.099-21.101a28.646 28.646 0 0 0-6.836-8.017c5.485.089 9.601-1.349 9.601-1.349 16.312-5.064 14.663-16.282 14.663-16.282z" fill="#c6c6c6" fill-rule="nonzero"/><path d="M40.959 48a7.168 7.168 0 1 1 0-14.335 7.168 7.168 0 0 1 0 14.335z" fill="#fff"/></g></svg>