<svg height="40" viewBox="0 0 36 40" width="36" xmlns="http://www.w3.org/2000/svg"><g fill="#fbc02d"><path d="m21 2c0-1.105-1.343-2-3-2s-3 .895-3 2c0 .927 1 9.112 1 9.667 0 .736.895 1.333 2 1.333s2-.597 2-1.333c0-.555 1-8.74 1-9.667z"/><path d="m15 38c0 1.105 1.343 2 3 2s3-.895 3-2c0-.927-1-9.112-1-9.667 0-.736-.895-1.333-2-1.333s-2 .597-2 1.333c0 .555-1 8.74-1 9.667z"/><path d="m3.791 8.187c-.957-.552-2.404.163-3.232 1.598s-.725 3.046.232 3.598c.803.464 8.391 3.69 8.872 3.967.638.368 1.602-.109 2.155-1.065.552-.957.483-2.031-.155-2.399-.481-.278-7.068-5.236-7.872-5.699z"/><path d="m32.209 31.813c.957.552 2.404-.163 3.232-1.598s.725-3.046-.232-3.598c-.803-.464-8.391-3.69-8.872-3.967-.638-.368-1.602.109-2.155 1.065-.552.957-.483 2.031.155 2.399.481.278 7.068 5.236 7.872 5.699z"/><path d="m32.209 8.187c.957-.552 2.404.163 3.232 1.598s.725 3.046-.232 3.598c-.803.464-8.391 3.69-8.872 3.967-.638.368-1.602-.109-2.155-1.065-.552-.957-.483-2.031.155-2.399.481-.278 7.068-5.236 7.872-5.699z"/><path d="m3.791 31.813c-.957.552-2.404-.163-3.232-1.598s-.725-3.046.232-3.598c.803-.464 8.391-3.69 8.872-3.967.638-.368 1.602.109 2.155 1.065.552.957.483 2.031-.155 2.399-.481.278-7.068 5.236-7.872 5.699z"/></g></svg>